<?xml version="1.0" encoding="UTF-8" standalone="no"?>
<!-- Created with Inkscape (http://www.inkscape.org/) -->

<svg
   width="24"
   height="24"
   viewBox="0 0 6.3499998 6.35"
   version="1.1"
   id="svg5"
   inkscape:version="1.2 (dc2aedaf03, 2022-05-15)"
   xmlns:inkscape="http://www.inkscape.org/namespaces/inkscape"
   xmlns:sodipodi="http://sodipodi.sourceforge.net/DTD/sodipodi-0.dtd"
   xmlns="http://www.w3.org/2000/svg"
   xmlns:svg="http://www.w3.org/2000/svg">
  <sodipodi:namedview
     id="namedview7"
     pagecolor="#ffffff"
     bordercolor="#000000"
     borderopacity="0.25"
     inkscape:showpageshadow="2"
     inkscape:pageopacity="0.0"
     inkscape:pagecheckerboard="0"
     inkscape:deskcolor="#d1d1d1"
     inkscape:document-units="mm"
     showgrid="false"
     inkscape:zoom="22.463749"
     inkscape:cx="13.265818"
     inkscape:cy="12.709366"
     inkscape:window-width="1920"
     inkscape:window-height="986"
     inkscape:window-x="-11"
     inkscape:window-y="-11"
     inkscape:window-maximized="1"
     inkscape:current-layer="layer1" />
  <defs
     id="defs2" />
  <g
     inkscape:label="Layer 1"
     inkscape:groupmode="layer"
     id="layer1">
    <path
       style="fill:#000000;stroke-width:0.264583"
       d="M 0.84803299,1.1778236 1.448723,3.2036803"
       id="path186" />
    <path
       style="fill:#000000;stroke-width:0.264583"
       d="M 1.5076142,3.1212324 1.7431789,2.6501031"
       id="path188" />
    <path
       style="fill:#000000;stroke-width:0.264583"
       d="m 0.63602475,1.295606 c 0.0776105,0.2716367 -0.0683433,-0.2285865 0.0942259,0.2591212 0.0231939,0.069581 0.0327806,0.143468 0.0588912,0.2120082 0.10036976,0.2634706 0.11133727,0.2278812 0.21200825,0.40046 0.019436,0.03332 0.046342,0.1036914 0.058891,0.1413388 0.00248,0.00745 -0.00351,0.016533 0,0.023556 0.011243,0.022485 0.039163,0.035042 0.047113,0.058891 0.00372,0.011174 -0.00527,0.0248 0,0.035335 0.017968,0.035936 0.040807,0.069837 0.058891,0.1060041 0.0098,0.019595 0.013568,0.055687 0.023556,0.07067 0.00616,0.00924 0.015704,0.015704 0.023556,0.023556 0.00393,0.011778 0.00489,0.025005 0.011778,0.035335 0.00218,0.00327 0.00785,0 0.011778,0 0.00393,0.00785 0.00965,0.015039 0.011778,0.023556 0.014034,0.056137 0.034756,0.093068 0.058891,0.1413389 0.00351,0.00702 -0.00555,0.018005 0,0.023556 0.00278,0.00278 0.009,-0.00278 0.011778,0 0.00614,0.00614 -0.0041,0.040956 0,0.047113 0.01232,0.018479 0.032895,0.030051 0.047113,0.047113 0.015998,0.019195 0.020911,0.1426617 0.047113,0.1295606 0.027305,-0.013653 0.058748,-0.1644655 0.070669,-0.20023 C 1.5447316,2.6918652 1.5709876,2.6055338 1.6960656,2.3792022 1.7866619,2.2152681 1.8969777,2.0629602 2.0023001,1.9080742 2.0972557,1.7684336 2.1954358,1.6309296 2.296756,1.495836 2.3470446,1.4287845 2.412132,1.3734099 2.4616513,1.3073842 c 0.015083,-0.020111 0.043808,-0.027002 0.058891,-0.047113 0.00471,-0.00628 -0.00436,-0.017023 0,-0.023556 0.00974,-0.014609 0.034698,-0.011141 0.047113,-0.023556 0.024361,-0.024361 0.014439,-0.031442 0.035335,-0.047113 0.016444,-0.012333 0.070669,-0.030755 0.070669,-0.058891 0,-0.012179 -0.028147,0.019963 -0.035335,0.023556 -0.010085,0.00504 -0.061301,0.00234 -0.070669,0 -0.042409,-0.010602 -0.021783,-0.00823 -0.035335,-0.035335 -0.00176,-0.00351 -0.00805,0.00124 -0.011778,0 -0.00833,-0.00278 -0.016252,-0.00691 -0.023556,-0.011778 -0.00924,-0.00616 -0.013624,-0.01859 -0.023557,-0.023557 -0.052183,-0.026091 -0.069447,0.080003 -0.082448,0.1060042 -0.00963,0.019265 -0.036439,0.021103 -0.047113,0.035335 -0.017187,0.022916 -0.016021,0.055123 -0.047113,0.070669 -0.027966,0.013983 -0.017399,0.028998 -0.035335,0.058891 -0.03177,0.05295 -0.012038,2.6e-4 -0.047113,0.035335 -0.037679,0.037679 -0.00922,0.026218 -0.035335,0.047113 -0.015329,0.012263 -0.033232,0.021454 -0.047113,0.035335 -0.022175,0.022175 -0.036716,0.060272 -0.058891,0.082448 -0.00437,0.050781 -0.041977,0.010871 -0.058891,0.023556 -0.038376,0.028782 -0.049526,0.096639 -0.082448,0.1295605 -0.00621,0.00621 -0.017349,0.00557 -0.023556,0.011778 -0.00621,0.00621 -0.00651,0.016533 -0.011778,0.023556 -0.022924,0.030566 -0.058023,0.053138 -0.082448,0.082448 -0.023795,0.028554 -0.038574,0.06375 -0.058891,0.094226 -0.00924,0.013859 -0.02534,0.022009 -0.035335,0.035335 -0.00527,0.00702 -0.00557,0.017349 -0.011778,0.023556 -0.00278,0.00278 -0.009,-0.00278 -0.011778,0 -0.00949,0.00949 -0.028567,0.061646 -0.035335,0.070669 -0.00527,0.00702 -0.01904,0.00425 -0.023556,0.011778 -0.00833,0.013881 -0.00454,0.032634 -0.011778,0.047113 -0.012416,0.024831 -0.040824,0.037813 -0.058891,0.058891 -0.048095,0.056111 -0.018368,0.051108 -0.047113,0.094226 -0.034056,0.051084 -0.015197,-0.00323 -0.035335,0.047113 -0.022274,0.055686 -0.036378,0.1086119 -0.058891,0.1648953 -0.011915,0.029788 0.00168,0.1985499 -0.011778,0.2120082 C 1.3887152,2.6865545 1.3710246,2.636045 1.3662754,2.6265466 1.3443273,2.5826505 1.3507994,2.5101344 1.3427189,2.4616513 1.3288636,2.3785194 1.279724,2.2767036 1.248493,2.2025301 1.2328069,2.1652756 1.1771803,2.039534 1.1542671,2.0023001 c 0.00622,-0.044932 -0.041882,-0.045156 -0.058891,-0.070669 -0.019328,-0.028993 -0.027785,-0.065233 -0.047113,-0.094226 -0.00487,-0.0073 -0.02078,-0.00345 -0.023556,-0.011778 -0.00372,-0.011174 0.00286,-0.023908 0,-0.035335 -0.00123,-0.00493 -0.021227,-0.044783 -0.023556,-0.047113 -0.0143457,-0.014346 -0.0263152,-0.00552 -0.0353347,-0.023556 -0.006596,-0.013191 -0.005552,-0.034661 -0.0117782,-0.047113 -0.001757,-0.00351 -0.009002,0.00278 -0.0117782,0 C 0.933598,1.6638501 0.9156338,1.6370091 0.906925,1.6253971 0.885137,1.5963461 0.870279,1.5589771 0.8480338,1.5311711 0.8376283,1.5181641 0.8226932,1.5091621 0.8126991,1.4958361 c -0.007449,-0.00993 -0.004891,-0.025004 -0.0117782,-0.035335 -0.00616,-0.00924 -0.0185904,-0.013624 -0.0235564,-0.023556 -0.003512,-0.00702 0.003512,-0.016533 0,-0.023556 -0.004918,-0.00984 -0.0346054,-0.022098 -0.0353348,-0.023557 -0.006227,-0.012453 -0.003906,-0.051019 -0.0117782,-0.058891 -0.005889,-0.00589 -0.0294456,0.00589 -0.0353347,0 -0.012934,-0.012934 0.0732971,-0.1179524 -0.0588912,-0.035335 -0.11359192,0.070995 0.008469,0.082448 -0.0588912,0.082448"
       id="path198" />
    <path
       style="fill:#000000;stroke-width:0.264583"
       d="M 3.250793,1.696066 3.6041401,1.1778236"
       id="path200" />
    <path
       style="fill:#000000;stroke-width:0.264583"
       d="m 3.7690356,1.0364848 c -0.1372423,0.049056 -0.2722245,0.1131131 -0.4122383,0.153117 -0.059187,0.016911 -0.1167588,0.00858 -0.1766737,0.023556 -0.039214,0.0098 -0.06985,0.040814 -0.106004,0.058891 -0.025519,0.01276 -0.1191834,0.039538 -0.1295606,0.070669 -0.00249,0.00745 0.00191,0.015939 0,0.023556 -0.010776,0.043108 -0.038269,0.07356 -0.047113,0.1177823 -0.00669,0.033468 -0.00842,0.3163011 0,0.3415689 0.00278,0.00833 0.018687,0.00447 0.023556,0.011778 0.031094,0.04664 0.047038,0.1058545 0.070669,0.153117 0.017357,0.034715 0.00983,0.069395 0.023556,0.1060042 0.00718,0.019133 0.068256,0.1292727 0.070669,0.1413388 0.00308,0.015399 -0.00702,0.033067 0,0.047113 0.01664,0.033278 0.050521,0.052224 0.070669,0.082448 0.00974,0.014609 0.00895,0.037374 0.023556,0.047113 0.0098,0.00653 0.027006,-0.00833 0.035335,0 0.0056,0.0056 0.017957,0.041515 0.023556,0.047113 0.014351,0.014352 0.044539,0.020983 0.058891,0.035335 0.00501,0.00501 0.018796,0.038843 0.035335,0.047113 0.038294,0.019147 0.082448,0.041267 0.082448,0.094226 0,0.011778 0.00527,0.0248 0,0.035335 C 3.406666,2.691698 3.394697,2.682869 3.380351,2.697215 3.369159,2.708407 3.366804,2.748843 3.345016,2.756106 3.311448,2.767295 3.2234278,2.7552858 3.1918987,2.767885 3.1815877,2.772005 3.1775817,2.785281 3.1683427,2.791441 3.1290237,2.817653 3.0681534,2.822899 3.0270038,2.850332 c -0.004,0.00267 -0.00793,0.019709 -0.011779,0.023556 -0.00877,0.00877 -0.040458,0.016902 -0.047113,0.023556 -0.00665,0.00665 -0.014782,0.038339 -0.023556,0.047113 -0.00621,0.00621 -0.018074,0.00492 -0.023556,0.011779 -0.01097,0.013711 -0.017037,0.030811 -0.023556,0.047113 -0.00146,0.00365 0.00278,0.009 0,0.011779 -0.010009,0.010009 -0.026492,0.012502 -0.035335,0.023556 -0.00775,0.00969 -0.00623,0.02423 -0.011779,0.035335 -0.00776,0.015515 -0.027578,0.031598 -0.035335,0.047113 -0.00251,0.005 -0.00591,0.073591 0,0.082448 0.00487,0.00731 0.017349,0.00557 0.023556,0.011779 0.00621,0.00621 0.00557,0.017349 0.011779,0.023556 0.00555,0.00555 0.015703,0 0.023556,0 0.091467,0 0.13579,-0.053342 0.20023,-0.1177825 0.015907,-0.015907 0.016608,-0.038048 0.023556,-0.058891 0.010649,-0.03195 0.074748,-0.1191422 0.1060043,-0.1295607 0.024183,-0.00806 0.1764384,-0.0234 0.1766734,-0.023556 0.032378,-0.021585 0.060256,-0.048022 0.094226,-0.070669 0.013946,-0.0093 0.043064,-0.010896 0.058891,-0.023556 0.027176,-0.021741 0.060717,-0.065252 0.082448,-0.094226 0.02931,-0.03908 0.015259,-0.064521 0.023556,-0.1060041 0.00723,-0.036136 0.026623,-0.071156 0.035335,-0.1060042 0.00347,-0.013873 0.00554,-0.071367 0,-0.082448 -0.00175,-0.00351 -0.009,0.00278 -0.011779,0 -0.00589,-0.00589 0.00589,-0.029446 0,-0.035335 -0.015356,-0.015357 -0.1509591,0.013936 -0.1884516,-0.023556 -0.00278,-0.00278 0.00175,-0.00827 0,-0.011778 -0.016171,-0.03234 -0.062443,-0.05244 -0.082448,-0.082448 -0.00689,-0.01033 -0.003,-0.026556 -0.011779,-0.035335 -0.00621,-0.00621 -0.017349,-0.00557 -0.023556,-0.011778 -0.00278,-0.00278 0.00217,-0.00851 0,-0.011778 -0.027183,-0.040784 -0.069535,-0.08842 -0.094221,-0.1295627 -0.021386,-0.035644 -0.029081,-0.081718 -0.047113,-0.1177824 -0.014808,-0.029616 -0.029358,-0.046586 -0.035335,-0.082448 -0.00801,-0.048071 0,-0.1041385 0,-0.1531171 0,-0.039836 -0.012385,-0.1041818 0,-0.1413388 0.011792,-0.035381 0.048029,-0.061639 0.058891,-0.094226 0.00249,-0.00745 -0.00435,-0.017023 0,-0.023556 0.0069,-0.010356 0.1318583,-0.074021 0.1413389,-0.082448 0.053874,-0.047888 0.0097,-0.046697 0.070669,-0.058891 0.048414,-0.00968 0.1508244,0.018814 0.1884518,0 0.039635,-0.019818 0.022738,-0.064978 0.047113,-0.094226 0.015703,-0.015704 0.031408,-0.031409 0.047113,-0.047113 0.00785,-0.00393 0.017349,-0.00557 0.023556,-0.011778 0.00278,-0.00278 -0.00217,-0.00851 0,-0.011778 0.00616,-0.00924 0.01859,-0.013624 0.023556,-0.023556 0.00857,-0.017143 -0.010514,-0.1054622 -0.011779,-0.1060042 -0.022823,-0.00978 -0.047113,0.015704 -0.070669,0.023556"
       id="path202" />
    <path
       style="fill:#000000;stroke-width:0.264583"
       d="m 5.3590972,1.2249365 c -0.015706,0.00785 -0.032504,0.013817 -0.047113,0.023556 -0.00924,0.00616 -0.013623,0.01859 -0.023556,0.023556 -0.053998,0.026999 -0.059408,3.096e-4 -0.1177822,0.035335 -0.041094,0.024657 -0.076968,0.057331 -0.1177824,0.082448 -0.010573,0.00651 -0.024556,0.00562 -0.035335,0.011778 -0.114363,0.06535 -0.1010994,0.069253 -0.1884516,0.1177823 -0.026138,0.014521 -0.058528,0.017394 -0.082448,0.035335 -0.017301,0.012976 -0.1196846,0.1024928 -0.1413389,0.1295606 -0.071664,0.08958 -0.085154,0.1676327 -0.1413388,0.2826777 -0.088273,0.1807486 -0.1848985,0.342128 -0.2944561,0.5064641 -0.00652,0.00979 -0.00193,0.2004578 0,0.2120082 0.00146,0.00866 0.010057,0.014949 0.011779,0.023556 0.0023,0.011549 -0.00193,0.023717 0,0.035335 0.00878,0.052702 0.041309,0.1208542 0.070669,0.1648952 0.00426,0.00639 0.066631,0.031296 0.082448,0.047113 0.00278,0.00278 -0.00217,0.00851 0,0.011779 0.015864,0.023799 0.047258,0.055062 0.070669,0.070669 0.022058,0.014705 0.036833,0.00885 0.058891,0.023556 0.033855,0.022569 0.010313,0.037398 0.058891,0.047113 0.075341,0.015068 0.2248561,0 0.3062343,0 0.086413,0 0.1862034,-0.014115 0.2708994,0 0.073277,0.012213 0.1358461,0.011779 0.2120083,0.011779 0.063344,0 0.2542339,-0.012999 0.306234,0 0.057045,0.014261 0.013899,0.011779 0.058891,0.011779 0.011999,0 0.091166,0.00612 0.094226,0 0.00365,-0.00731 0,-0.036677 0,-0.047113 0,-0.00485 0.00312,-0.032217 0,-0.035335 -0.00555,-0.00555 -0.016534,0.00351 -0.023556,0 -0.00785,-0.00393 -0.017349,-0.00557 -0.023556,-0.011779 -0.00278,-0.00278 0.00351,-0.010022 0,-0.011779 -0.043257,-0.02163 -0.216028,0.021548 -0.2591213,0 -0.027898,-0.013949 -0.061947,-0.024574 -0.094226,-0.035334 -0.017621,-0.00587 -0.04127,-0.00591 -0.058891,-0.011779 -0.034392,-0.011464 -0.059147,-0.038343 -0.094226,-0.047113 -0.028869,-0.00722 -0.066046,0.00939 -0.094226,0 -0.038163,-0.012721 -0.066327,-0.00516 -0.1060043,-0.011779 -0.047074,-0.00784 -0.093239,-0.015539 -0.1413388,-0.023556 -0.082229,-0.013705 -0.1656104,0.00865 -0.2473428,-0.011779 -0.048037,-0.012009 -0.1050804,0.012009 -0.153117,0 -0.00852,-0.00212 -0.015039,-0.00965 -0.023556,-0.011779 -0.00762,-0.0019 -0.016534,0.00351 -0.023556,0 -0.00351,-0.00175 0.00351,-0.010022 0,-0.011779 -0.012623,-0.00631 -0.060908,0.00976 -0.070669,0 -0.0093,-0.0093 0,-0.079642 0,-0.094226 0,-0.044193 0.012891,-0.063336 0.023556,-0.106004 0.00541,-0.02162 -0.00704,-0.049562 0,-0.070669 0.00344,-0.010331 0.029065,-0.0644 0.035335,-0.070669 0.00278,-0.00278 0.010022,0.00351 0.011779,0 0.00527,-0.010535 -0.00527,-0.0248 0,-0.035335 0.011607,-0.023213 0.038139,-0.043749 0.047113,-0.070669 0.00373,-0.011174 0,-0.023556 0,-0.035335 0.015706,-0.035335 0.031409,-0.070669 0.047113,-0.1060041"
       id="path204" />
    <path
       style="fill:#000000;stroke-width:0.264583"
       d="M 4.6170685,2.0376348 2.5205425,4.5817337"
       id="path206" />
    <path
       style="fill:#000000;stroke-width:0.264583"
       d="M 2.1907519,5.2884278 1.2013801,4.0517132"
       id="path208" />
    <path
       style="fill:#000000;stroke-width:0.264583"
       d="m 2.0258566,3.9103744 c 0,0.512527 -0.00171,-0.9066538 0.023556,0.6595811 0.00102,0.062932 -0.00916,0.1255665 -0.011778,0.1884519 -0.00602,0.1444641 0,0.2912268 0,0.4357946 0,0.074596 0.00372,0.149284 0,0.2237865 -0.00338,0.067543 -0.023556,0.1322334 -0.023556,0.20023 0,0.094226 0,0.1884519 0,0.2826777 0,0.027482 0,0.054965 0,0.082448 0,0.011779 -0.011778,0.035335 0,0.035335 0.00374,0 -0.00842,-0.025236 0.011778,-0.035335 0.00942,-0.00471 0.025912,0.00471 0.035335,0 0.050631,-0.025315 0.050596,-0.023556 0.1060041,-0.023556 0.015147,0 0.1387617,0.00257 0.1413388,0 0.00455,-0.00455 0.00467,-0.1037616 0,-0.1177824 -0.00351,-0.010536 -0.015704,-0.015706 -0.023556,-0.023556 -0.00393,-0.011779 -0.00934,-0.023162 -0.011778,-0.035335 -0.00735,-0.03673 0,-0.095282 0,-0.1295604 0,-0.072185 -0.014419,-0.2250019 0,-0.2826776 0.00602,-0.02409 0.017534,-0.04658 0.023556,-0.070669 0.00381,-0.015235 -0.00308,-0.031714 0,-0.047113 0.00172,-0.00861 0.00965,-0.015039 0.011778,-0.023556 0.00381,-0.015235 -0.00497,-0.032215 0,-0.047113 0.00176,-0.00527 0.010022,-0.00651 0.011778,-0.011779 0.014551,-0.043653 0,-0.2166139 0,-0.2708995 0,-0.020558 -0.013134,-0.1164262 0,-0.1295606 0.015017,-0.015018 0.045198,0.022598 0.047113,0.023556 0.00702,0.00351 0.016533,-0.00351 0.023556,0 0.00351,0.00175 -0.00387,0.011134 0,0.011779 0.023236,0.00387 0.047295,-0.00292 0.070669,0 0.017422,0.00217 0.030079,0.019299 0.047113,0.023556 0.011426,0.00286 0.027006,-0.00833 0.035335,0 0.00278,0.00278 -0.00372,0.010536 0,0.011779 0.031818,0.010607 0.097369,0 0.1295605,0 0.015706,0 0.036008,-0.011105 0.047113,0 5.292e-4,5.292e-4 -0.06308,0.1539057 -0.070669,0.1766734 -0.014092,0.042277 0,0.4148029 0,0.4593513 0,0.03291 -0.010857,0.2256301 0,0.2473431 0.00249,0.00497 0.00929,0.00681 0.011779,0.011779 0.00618,0.012356 -0.0094,0.04949 0,0.058891 0.00278,0.00278 0.010022,-0.00351 0.011779,0 0.00351,0.00702 -0.00351,0.016534 0,0.023556 0.00808,0.016161 0.2843929,0.011779 0.306234,0.011779 0.012189,0 0.052153,0.00674 0.058891,0 0.01401,-0.01401 -0.00907,-0.071604 -0.011779,-0.082448 -0.00666,-0.026662 0,-0.054965 0,-0.082448 0,-0.078522 0,-0.1570432 0,-0.2355649 0,-0.019389 -0.00766,-0.1107065 0,-0.1413389 0.00513,-0.020511 0.01941,-0.038159 0.023556,-0.058891 0.00385,-0.019248 -0.00243,-0.039413 0,-0.058891 0.00153,-0.012319 0.010022,-0.023045 0.011779,-0.035335 0.012213,-0.085497 0,-0.1845654 0,-0.2708994 0,-0.034834 0.01478,-0.1117804 0,-0.1413389 -0.00249,-0.00497 -0.00929,-0.00681 -0.011779,-0.011779 -0.014134,-0.028268 0.014134,-0.077736 0,-0.106004 -0.00114,-0.0023 -0.021,-0.00922 -0.023556,-0.011779 -0.00278,-0.00278 0,-0.00785 0,-0.011779 0,-0.027482 -0.00212,-0.055046 0,-0.082448 0.00183,-0.02381 0.0084,-0.047028 0.011779,-0.070669 0.00429,-0.030053 -0.00732,-0.06495 0,-0.094226 0.00426,-0.017034 0.019299,-0.030079 0.023556,-0.047113 0.00762,-0.030471 0,-0.062817 0,-0.094226 0,-0.082448 0,-0.1648955 0,-0.2473431 0,-0.028269 0.00592,-0.2296417 0,-0.2355646 -3.704e-4,-3.705e-4 -0.1644203,-4.763e-4 -0.1648955,0 -0.01388,0.01388 -0.021452,0.033232 -0.035335,0.047113 -0.00555,0.00555 -0.018005,-0.00555 -0.023556,0 -0.01156,0.01156 0,0.095332 0,0.106004 0,0.030633 0.0122,0.152273 0,0.1766736 -0.00633,0.01266 -0.017981,0.022323 -0.023556,0.035335 -0.00788,0.018399 -6.614e-4,0.042234 -0.011779,0.058891 -0.00616,0.00924 -0.01859,0.013623 -0.023556,0.023556 -0.00351,0.00702 0.00217,0.016007 0,0.023556 -0.00581,0.020328 -0.015227,0.039458 -0.023556,0.058891 -0.019944,0.046535 -0.052363,0.089113 -0.058891,0.1413388 -0.00204,0.01637 0.00222,0.3393493 0,0.3415689 -0.00814,0.00814 -0.083644,0.00265 -0.094226,0 -0.02898,-0.00724 -0.032516,-0.033925 -0.035335,-0.035335 -0.00942,-0.00471 -0.025912,0.00471 -0.035335,0 -0.024672,-0.012335 -0.053775,-0.013999 -0.082448,-0.023556 -0.00745,-0.00249 -0.018004,0.00555 -0.023556,0 -0.00278,-0.00278 0.00278,-0.009 0,-0.011779 -0.00785,-0.00785 -0.039261,0.00785 -0.047113,0 -0.00278,-0.00278 0.00278,-0.009 0,-0.011779 -0.00982,-0.00982 -0.049076,0.00982 -0.058891,0 -0.00555,-0.00555 0,-0.015706 0,-0.023556 0,-0.029995 -0.00939,-0.077839 0,-0.1060042 0.00176,-0.00527 0.010022,-0.00651 0.011778,-0.011779 0.013847,-0.04154 0,-0.280312 0,-0.3297907 0,-0.030406 0.0107,-0.2259422 0,-0.2473428 -0.00789,-0.01578 -0.047113,-0.068256 -0.047113,-0.070669 -0.031409,3.2e-6 -0.062818,2.9e-6 -0.094227,2.9e-6"
       id="path216" />
  </g>
</svg>
